<svg xmlns="http://www.w3.org/2000/svg" width="44" height="42.97" viewBox="0 0 44 42.97">
  <defs>
    <style>
      .cls-1 {
        fill-rule: evenodd;
      }
    </style>
  </defs>
  <path id="Automation" class="cls-1" d="M1233.79,1940.38h0.86a35.722,35.722,0,0,1,5.91-5.15v-2.57c-2.48-1.62-5.06-2.48-7.54-4.2-1.71,1.72-4.29,3.44-6.01,5.92a40.949,40.949,0,0,0,4.3,6h2.48Zm-5.06,4.2h0c0-.86,0-0.86.86-1.72a25.3,25.3,0,0,1-4.29-5.05,17.547,17.547,0,0,0-2.48,9.24c0,4.29.85,8.49,3.34,10.97a62.559,62.559,0,0,1,3.43-10.97,7.784,7.784,0,0,1-.86-2.47h0Zm16.03-15.26h0a6.459,6.459,0,0,1,3.43,1.72c2.48-1.72,5.06-1.72,7.64-2.58a23.456,23.456,0,0,0-11.07-2.47,25.456,25.456,0,0,0-7.54.76c1.62,0.86,3.34,2.57,5.06,3.43,0.86,0,1.62-.86,2.48-0.86h0Zm6.77,22.02h0c0.86-.85.86-0.85,1.72-1.71a49.941,49.941,0,0,0-6.77-11.06h-1.72a3.211,3.211,0,0,1-2.48-.76c-1.72,1.62-3.44,2.57-5.06,4.19a3.159,3.159,0,0,1,.86,2.58v1.71a38.042,38.042,0,0,0,13.45,5.05h0Zm5.92,5.82h0v7.63c3.43-2.58,6.77-6.77,7.63-10.97a10.318,10.318,0,0,1-5.06.86c0,1.72-.85,2.48-2.57,2.48h0Zm-6.78-2.48h0c-5.05-.86-10.11-3.34-14.31-5.91-0.86,0-1.71.86-2.57,0.86-0.77,0-.77,0-0.77-0.86-2.67,4.19-3.43,8.39-4.29,13.44,2.58,1.72,5.06,4.29,7.63,5.15,3.34-5.15,8.4-10.2,14.31-12.68h0Zm8.5-23.64h0c-3.34.86-6.78,1.62-10.12,2.48l0.76,0.86c0,0.85-.76.85-0.76,1.71,3.34,3.34,5.06,7.63,6.78,12.68a4.673,4.673,0,0,1,4.19,2.57c2.58,0,4.2,0,5.92-.85,0.86-.86.86-2.58,0.86-3.44,0-5.81-3.34-11.82-7.63-16.01h0Zm-5.92,26.12h0a29.3,29.3,0,0,0-13.55,11.06,11.973,11.973,0,0,0,5.06.76c3.43,0,5.91-.76,9.35-1.62,0-2.57.86-5.15,0.86-6.77a3.129,3.129,0,0,0-.86-2.57,0.842,0.842,0,0,0-.86-0.86h0Z" transform="translate(-1222.81 -1926)"/>
</svg>
