<svg xmlns="http://www.w3.org/2000/svg" width="27" height="47" viewBox="0 0 27 47">
  <defs>
    <style>
      .cls-1 {
        fill-rule: evenodd;
      }
    </style>
  </defs>
  <path id="Digitization" class="cls-1" d="M257.786,1922.91H239.211a3.978,3.978,0,0,0-4.213,4.23v37.55c0,2.51,1.627,5.2,4.213,5.2h18.575c2.585,0,4.213-2.69,4.213-5.2v-37.55a3.978,3.978,0,0,0-4.213-4.23h0ZM248.5,1967.2h0c-1.723,0-3.351-.87-3.351-1.64,0-1.73,1.628-2.6,3.351-2.6s3.351,0.87,3.351,2.6c0,0.77-1.627,1.64-3.351,1.64h0Zm10.15-6.74h-20.3v-31.58h20.3v31.58h0Z" transform="translate(-235 -1922.91)"/>
</svg>
