<svg xmlns="http://www.w3.org/2000/svg" width="46.625" height="35.78" viewBox="0 0 46.625 35.78">
  <defs>
    <style>
      .cls-1 {
        fill-rule: evenodd;
      }
    </style>
  </defs>
  <path id="Education" class="cls-1" d="M234.473,1787.43h0c1.611,4.25,2.465,5.95,7.489,7.56,4.17,2.55,6.728,5.01,8.434,5.01s4.265-2.46,8.436-4.16c5.024-2.46,3.318-2.46,5.024-7.47l-13.46,6.62-15.923-7.56h0Zm38.578-11.72h0l-20.19-10.87c-0.758-.85-3.318-0.85-5.024,0l-20.094,10.87c-0.853.85-.853,1.7,0,3.4l20.094,10.87c1.706,0.85,4.266.85,5.024,0l12.7-7.56-13.46-3.31c-0.853,0-.853.76-1.707,0.76-2.559,0-4.264-1.61-4.264-3.31,0-.85,1.7-2.45,4.264-2.45a6.475,6.475,0,0,1,4.265,1.6l14.219,5.01,4.171-1.61c0.853-1.7.853-2.55,0-3.4h0Zm-5.877,20.98h0c-0.853.85,2.56,1.7,3.413-.85,0.758-11.72-1.707-15.12-1.707-15.12l-3.317,1.7s3.317,2.55,1.611,14.27h0Z" transform="translate(-227.094 -1764.22)"/>
</svg>
