<svg xmlns="http://www.w3.org/2000/svg" width="46.968" height="29" viewBox="0 0 46.968 29">
  <defs>
    <style>
      .cls-1 {
        fill-rule: evenodd;
      }
    </style>
  </defs>
  <path id="Energy" class="cls-1" d="M513.934,1787.38h0c0-5.86,3.41-10.18,5.02-10.18h3.41c-1.7-2.6-2.557-4.33-8.43-4.33H490.443c-9.189,0-12.6,8.65-12.6,14.51,0,5.96,3.411,14.51,12.6,14.51h23.491c5.873,0,6.726-1.73,8.43-4.32h-3.41c-1.61,0-5.02-3.37-5.02-10.19h0Zm-6.724,4.33h0c0,0.76-.76,0-0.76,0l-7.672-2.6a6.776,6.776,0,0,1-.852,2.6c-0.759.76-.759,2.49-2.463,0.76-2.557-1.63-8.335-7.59-8.335-7.59a3.013,3.013,0,0,1-.853-1.73h1.611l6.724,3.46a12.347,12.347,0,0,1,1.706-2.59c0-1.73.851-2.5,2.462-.87,1.7,0.87,8.432,7.69,8.432,7.69s0.851,0.87,0,.87h0Zm15.154-9.42h-1.7c-1.706,0-2.558,2.59-2.558,5.09,0,2.6.852,5.09,2.558,5.09h1.7c0.758,0,2.463-2.49,2.463-5.09,0-2.5-1.705-5.09-2.463-5.09h0Z" transform="translate(-477.844 -1772.88)"/>
</svg>
