<svg xmlns="http://www.w3.org/2000/svg" width="46" height="30" viewBox="0 0 46 30">
  <defs>
    <style>
      .cls-1 {
        fill-rule: evenodd;
      }
    </style>
  </defs>
  <path id="Fin-tech" class="cls-1" d="M1017.11,1772.01a2.032,2.032,0,0,1,1.33.44,1.283,1.283,0,0,1,.57,1.04v26.98a1.317,1.317,0,0,1-.57,1.09,2.088,2.088,0,0,1-1.33.44H974.937a2.231,2.231,0,0,1-1.389-.44,1.316,1.316,0,0,1-.554-1.09v-26.98a1.281,1.281,0,0,1,.554-1.04,2.147,2.147,0,0,1,1.389-.44h42.173Zm-1.93,9a9.318,9.318,0,0,1-2.99-.48,8,8,0,0,1-2.43-1.28,6.473,6.473,0,0,1-1.64-1.9,4.764,4.764,0,0,1-.62-2.34H984.508a4.717,4.717,0,0,1-.616,2.34,6.313,6.313,0,0,1-1.631,1.9,8.279,8.279,0,0,1-2.437,1.28,9.184,9.184,0,0,1-2.973.48V1793a9.162,9.162,0,0,1,2.973.48,8.263,8.263,0,0,1,2.437,1.27,6.266,6.266,0,0,1,1.631,1.91,4.654,4.654,0,0,1,.616,2.33H1007.5a4.7,4.7,0,0,1,.62-2.33,6.662,6.662,0,0,1,1.64-1.91,7.923,7.923,0,0,1,2.42-1.27,9.246,9.246,0,0,1,3-.48v-11.99h0Zm-19.172-3.77a9.141,9.141,0,0,1,3.734.76,9.743,9.743,0,0,1,3.038,2.08,10.313,10.313,0,0,1,2.07,3.11,9.836,9.836,0,0,1,0,7.63,10.313,10.313,0,0,1-2.07,3.11,9.841,9.841,0,0,1-3.048,2.08,9.558,9.558,0,0,1-7.47,0,9.776,9.776,0,0,1-3.044-2.08,9.58,9.58,0,0,1-2.035-3.11,10.178,10.178,0,0,1,0-7.63,9.505,9.505,0,0,1,5.079-5.19,9.259,9.259,0,0,1,3.746-.76m5.722,12.93h-3.523v-10.33h-3.492l-4.449,3.24,2.346,1.93,0.975-.68a0.821,0.821,0,0,0,.288-0.27,0.894,0.894,0,0,1,.188-0.22,0.468,0.468,0,0,0,.2-0.2h0.054v0.32a2.149,2.149,0,0,1-.029.32,2.654,2.654,0,0,0-.025.36v5.53h-3.468v2.51h10.938v-2.51h0Z" transform="translate(-973 -1772)"/>
</svg>
