<svg xmlns="http://www.w3.org/2000/svg" xmlns:xlink="http://www.w3.org/1999/xlink" width="26" height="44.78" viewBox="0 0 26 44.78">
  <defs>
    <style>
      .cls-1 {
        fill: #1bc9b6;
        fill-rule: evenodd;
        filter: url(#filter);
      }
    </style>
    <filter id="filter" x="1231.81" y="1762.22" width="26" height="44.78" filterUnits="userSpaceOnUse">
      <feFlood result="flood" flood-color="#1bc9b6"/>
      <feComposite result="composite" operator="in" in2="SourceGraphic"/>
      <feBlend result="blend" in2="SourceGraphic"/>
    </filter>
  </defs>
  <path id="Oil_gas" data-name="Oil &amp; gas" class="cls-1" d="M1245.64,1762.84h0c0-.85-0.83-0.85-1.66,0-1.66,16.57-12.18,19.96-12.18,31.63,0,6.69,6.46,12.53,13.01,12.53a12.859,12.859,0,0,0,13.01-12.53c0-11.67-10.61-15.06-12.18-31.63h0Zm-2.49,18.36h0v1.6c-0.83,3.39-2.4,6.68-2.4,10.83,0,2.54-.83,3.39-2.49,3.39-1.57,0-2.4-.85-2.4-2.55,0-4.99,2.4-8.28,4.06-11.67a20.809,20.809,0,0,0,2.4-2.54h0.83v0.94h0Z" transform="translate(-1231.81 -1762.22)"/>
</svg>
