<svg xmlns="http://www.w3.org/2000/svg" width="43.436" height="43.57" viewBox="0 0 43.436 43.57">
  <defs>
    <style>
      .cls-1 {
        fill-rule: evenodd;
      }
    </style>
  </defs>
  <path id="payment_gateway" data-name="payment gateway" class="cls-1" d="M985.469,1950.63h0l8.1,8.33,14.729-15.73-8.19-8.32-14.641,15.72h0Zm31.861-11.61h0l-3.32-3.27h-2.39a3.85,3.85,0,0,1-4.05-4.12,3.428,3.428,0,0,1,.73-2.53l-4.05-3.37a2.372,2.372,0,0,0-3.22,0l-25.323,25.74a2.46,2.46,0,0,0,0,3.27l4.053,3.37c0-.75.828-0.75,1.657-0.75a4.724,4.724,0,0,1,4.879,4.96,2.947,2.947,0,0,1-.827,2.44l4.051,3.37a2.753,2.753,0,0,0,3.315,0l24.5-25.74a1.8,1.8,0,0,0,0-3.37h0Zm-23.759,23.3h0l-12.154-11.69,18.693-19,11.51,11.6-18.049,19.09h0Z" transform="translate(-975.094 -1925.12)"/>
</svg>
