<svg id="App_Factory" data-name="App Factory" xmlns="http://www.w3.org/2000/svg" width="29" height="29" viewBox="0 0 29 29">
  <defs>
    <style>
      .cls-1 {
        fill: none;
        stroke: #000;
        stroke-width: 2px;
      }

      .cls-2 {
        fill-rule: evenodd;
      }
    </style>
  </defs>
  <rect id="Rounded_Rectangle_1_copy" data-name="Rounded Rectangle 1 copy" class="cls-1" x="1" y="1" width="27" height="27" rx="6" ry="6"/>
  <path class="cls-2" d="M90.826,752.013H88.932c-1.119,0-1.936.328-1.936,1.437V755.3a1.8,1.8,0,0,0,1.936,1.808h1.893c1.162,0,1.549-.74,1.549-1.808V753.45c0-1.109-.387-1.437-1.549-1.437h0Zm7.228,0H96.161c-1.119,0-1.506.328-1.506,1.437V755.3c0,1.068.387,1.808,1.506,1.808h1.893A1.781,1.781,0,0,0,99.99,755.3V753.45c0-1.109-.775-1.437-1.936-1.437h0Zm-7.228,6.9H88.932A1.8,1.8,0,0,0,87,760.72v1.807c0,1.109.817,1.479,1.936,1.479h1.893c1.162,0,1.549-.37,1.549-1.479V760.72c0-1.068-.387-1.807-1.549-1.807h0Zm7.228,0H96.161c-1.119,0-1.506.739-1.506,1.807v1.807a1.238,1.238,0,0,0,1.506,1.479h1.893c1.162,0,1.936-.37,1.936-1.479V760.72a1.78,1.78,0,0,0-1.936-1.807h0Z" transform="translate(-79 -743)"/>
</svg>
