<svg xmlns="http://www.w3.org/2000/svg" xmlns:xlink="http://www.w3.org/1999/xlink" width="29" height="29" viewBox="0 0 29 29">
  <defs>
    <style>
      .cls-1 {
        filter: url(#filter);
      }

      .cls-2 {
        fill: none;
        stroke: #000;
        stroke-width: 2px;
      }

      .cls-3 {
        fill-rule: evenodd;
      }
    </style>
    <filter id="filter" filterUnits="userSpaceOnUse">
      <feFlood result="flood" flood-color="#1bc9b6"/>
      <feComposite result="composite" operator="in" in2="SourceGraphic"/>
      <feBlend result="blend" in2="SourceGraphic"/>
    </filter>
  </defs>
  <g id="RS_SPace" data-name="RS SPace" class="cls-1">
    <rect id="Rounded_Rectangle_1" data-name="Rounded Rectangle 1" class="cls-2" x="1" y="1" width="27" height="27" rx="6" ry="6"/>
    <path class="cls-3" d="M46.626,761.4h0c-2.157-.882-2.749-1.493-2.749-2.987,0-.611.592-0.305,0.9-1.8,0-.645.626,0,0.626-1.494,0-.645-0.313-0.645-0.313-0.645a5.677,5.677,0,0,0,.313-1.493c0-.917-0.313-2.987-3.41-2.987s-3.41,2.07-3.41,2.987a5.679,5.679,0,0,0,.313,1.493s-0.313,0-.313.645c0,1.494.626,0.849,0.626,1.494,0.313,1.494.939,1.188,0.939,1.8,0,1.494-.626,2.105-2.783,2.987C35.214,762.015,34,762.9,34,763.509V765H50v-1.494c0-.611-1.218-1.494-3.375-2.105" transform="translate(-27 -743)"/>
  </g>
</svg>
